<?xml version="1.0" encoding="UTF-8" standalone="no"?>
<svg width="26px" height="23px" viewBox="0 0 26 23" version="1.1" xmlns="http://www.w3.org/2000/svg" xmlns:xlink="http://www.w3.org/1999/xlink">
    <!-- Generator: Sketch 39.1 (31720) - http://www.bohemiancoding.com/sketch -->
    <title>Group 2</title>
    <desc>Created with Sketch.</desc>
    <defs>
        <polygon id="path-1" points="0.0340736842 4.86075949 1.50977895 4.86075949 1.50977895 0.0301081162 0.0340736842 0.0301081162 0.0340736842 4.86075949"></polygon>
    </defs>
    <g id="Page-1" stroke="none" stroke-width="1" fill="none" fill-rule="evenodd">
        <g id="Desktop-HD" transform="translate(-946.000000, -432.000000)">
            <g id="Group-2" transform="translate(959.149236, 443.252727) rotate(20.000000) translate(-959.149236, -443.252727) translate(946.149236, 431.752727)">
                <path d="M25.8499755,10.1939688 C25.8499755,10.1939688 25.0505439,17.3878929 21.5471123,19.8331408 C18.0436807,22.2783888 14.7832807,21.5830142 13.1627965,19.048843 C11.542586,16.5149577 12.1756176,13.1021326 15.6793228,10.6568847 C19.1827544,8.21163673 25.8499755,10.1939688 25.8499755,10.1939688" id="Fill-21-Copy" fill="#EA1C24"></path>
                <path d="M14.2315789,18.5512316 C14.2315789,18.5512316 14.8027579,18.0617245 15.6856632,17.3677796 C16.5696632,16.6761221 17.7708632,15.7883187 18.9928632,14.9333969 C20.2165053,14.0810484 21.4609474,13.2612956 22.4111789,12.6728578 C23.3627789,12.0864214 24.0146947,11.7230082 24.0146947,11.7230082 C24.0146947,11.7230082 23.4437895,12.213373 22.5608842,12.907032 C21.6768842,13.5989754 20.4754105,14.486207 19.2534105,15.3408429 C18.0294947,16.1931914 16.7847789,17.0123723 15.8345474,17.6008101 C14.8832211,18.1872465 14.2315789,18.5512316 14.2315789,18.5512316" id="Fill-23-Copy" fill="#FFFFFF"></path>
                <path d="M14.2315789,18.5512316 C14.2315789,18.5512316 14.8027579,18.0617245 15.6856632,17.3677796 C16.5696632,16.6761221 17.7708632,15.7883187 18.9928632,14.9333969 C20.2165053,14.0810484 21.4609474,13.2612956 22.4111789,12.6728578 C23.3627789,12.0864214 24.0146947,11.7230082 24.0146947,11.7230082 C24.0146947,11.7230082 23.4437895,12.213373 22.5608842,12.907032 C21.6768842,13.5989754 20.4754105,14.486207 19.2534105,15.3408429 C18.0294947,16.1931914 16.7847789,17.0123723 15.8345474,17.6008101 C14.8832211,18.1872465 14.2315789,18.5512316 14.2315789,18.5512316 L14.2315789,18.5512316 Z" id="Stroke-25-Copy" stroke="#FFFFFF" stroke-width="0.49" stroke-linejoin="round"></path>
                <path d="M12.643415,5.68434189e-13 C12.643415,5.68434189e-13 17.9392045,4.67319136 17.952615,9.07503797 C17.9660256,13.4768846 15.6087835,15.9307103 12.6918571,15.9404319 C9.77493083,15.9498675 7.40290977,13.5117677 7.38949925,9.110207 C7.37608872,4.70836039 12.643415,5.68434189e-13 12.643415,5.68434189e-13" id="Fill-27-Copy" fill="#EA1C24"></path>
                <path d="M12.9587281,14.8650603 C12.9587281,14.8650603 12.8498422,14.0970603 12.7545171,12.9447744 C12.6631806,11.7927744 12.5989658,10.2564885 12.5897923,8.7199166 C12.5850061,7.18363068 12.6344634,5.64705882 12.7166264,4.49448697 C12.8011825,3.34191512 12.9044846,2.57334326 12.9044846,2.57334326 C12.9044846,2.57334326 13.0137693,3.34134326 13.1090944,4.49362919 C13.2012286,5.64562919 13.2646457,7.18191512 13.2734204,8.71848697 C13.2778077,10.2547729 13.2271538,11.7916307 13.1457885,12.9439166 C13.0608336,14.0964885 12.9587281,14.8650603 12.9587281,14.8650603" id="Fill-29-Copy" fill="#FFFFFF"></path>
                <path d="M12.9587281,14.8650603 C12.9587281,14.8650603 12.8498422,14.0970603 12.7545171,12.9447744 C12.6631806,11.7927744 12.5989658,10.2564885 12.5897923,8.7199166 C12.5850061,7.18363068 12.6344634,5.64705882 12.7166264,4.49448697 C12.8011825,3.34191512 12.9044846,2.57334326 12.9044846,2.57334326 C12.9044846,2.57334326 13.0137693,3.34134326 13.1090944,4.49362919 C13.2012286,5.64562919 13.2646457,7.18191512 13.2734204,8.71848697 C13.2778077,10.2547729 13.2271538,11.7916307 13.1457885,12.9439166 C13.0608336,14.0964885 12.9587281,14.8650603 12.9587281,14.8650603 L12.9587281,14.8650603 Z" id="Stroke-31-Copy" stroke="#FFFFFF" stroke-width="0.49" stroke-linejoin="round"></path>
                <path d="M0,10.205861 C0,10.205861 0.814210526,17.3980695 4.32256842,19.8353115 C7.83092632,22.2728394 11.0899579,21.5703167 12.7049684,19.0327143 C14.3202526,16.4951119 13.6801053,13.0837165 10.1717474,10.6461886 C6.66338947,8.2086607 0,10.205861 0,10.205861" id="Fill-33-Copy" fill="#EA1C24"></path>
                <path d="M11.7125895,18.5295011 C11.7125895,18.5295011 11.0601263,18.1669456 10.1074316,17.5827967 C9.15610526,16.9963604 7.90974737,16.1797528 6.68418947,15.3302636 C5.46054737,14.478201 4.25715789,13.5938287 3.37178947,12.9038868 C2.48751579,12.2119434 1.91578947,11.7230082 1.91578947,11.7230082 C1.91578947,11.7230082 2.56825263,12.0849918 3.52122105,12.6694267 C4.47254737,13.2555771 5.71863158,14.0727565 6.94418947,14.9222457 C8.16783158,15.7745942 9.37067368,16.6595383 10.2560421,17.3491943 C11.1403158,18.0411378 11.7125895,18.5295011 11.7125895,18.5295011" id="Fill-35-Copy" fill="#FFFFFF"></path>
                <path d="M11.7125895,18.5295011 C11.7125895,18.5295011 11.0601263,18.1669456 10.1074316,17.5827967 C9.15610526,16.9963604 7.90974737,16.1797528 6.68418947,15.3302636 C5.46054737,14.478201 4.25715789,13.5938287 3.37178947,12.9038868 C2.48751579,12.2119434 1.91578947,11.7230082 1.91578947,11.7230082 C1.91578947,11.7230082 2.56825263,12.0849918 3.52122105,12.6694267 C4.47254737,13.2555771 5.71863158,14.0727565 6.94418947,14.9222457 C8.16783158,15.7745942 9.37067368,16.6595383 10.2560421,17.3491943 C11.1403158,18.0411378 11.7125895,18.5295011 11.7125895,18.5295011 L11.7125895,18.5295011 Z" id="Stroke-37-Copy" stroke="#FFFFFF" stroke-width="0.49" stroke-linejoin="round"></path>
                <g id="Group-41-Copy" transform="translate(12.315789, 17.727476)">
                    <mask id="mask-2" fill="white">
                        <use xlink:href="#path-1"></use>
                    </mask>
                    <g id="Clip-40"></g>
                    <polygon id="Fill-39" fill="#EA1C24" mask="url(#mask-2)" points="1.50977895 4.85912971 0.039 4.86084527 0.0340736842 0.0318236783 1.50485263 0.0301081162"></polygon>
                </g>
            </g>
        </g>
    </g>
</svg>