<?xml version="1.0" encoding="UTF-8"?>
<svg width="244px" height="154px" viewBox="0 0 244 154" version="1.1" xmlns="http://www.w3.org/2000/svg" xmlns:xlink="http://www.w3.org/1999/xlink">
    <!-- Generator: Sketch 45.2 (43514) - http://www.bohemiancoding.com/sketch -->
    <title>Group Copy 3</title>
    <desc>Created with Sketch.</desc>
    <defs></defs>
    <g id="Page-1" stroke="none" stroke-width="1" fill="none" fill-rule="evenodd">
        <g id="Group-Copy-3" transform="translate(1.000000, 1.000000)">
            <g id="Page-1-Copy">
                <g id="Group-53" transform="translate(0.000000, 0.092446)">
                    <path d="M241.675342,74.5279239 C241.675342,54.4793809 226.983558,37.8463945 207.702514,34.6227109 C204.030667,19.268514 190.131044,7.84226178 173.534118,7.84226178 C166.346439,7.84226178 159.666357,9.98775023 154.100356,13.6627714 C145.271222,5.46783401 133.416275,0.442070918 120.372537,0.442070918 C107.56502,0.442070918 95.8979502,5.27814143 87.1226526,13.2103437 C81.7016788,9.81441046 75.2852849,7.84226178 68.4008459,7.84226178 C51.8028216,7.84226178 37.9042973,19.268514 34.2313513,34.6227109 C14.9514062,37.8463945 0.259622237,54.4793809 0.259622237,74.5279239 C0.259622237,94.3867743 14.6756331,110.893299 33.687496,114.3372 C36.2826197,131.04432 50.8359678,143.837667 68.4008459,143.837667 C75.2852849,143.837667 81.7016788,141.865518 87.1226526,138.469585 C95.8979502,146.400697 107.56502,151.237858 120.372537,151.237858 C133.416275,151.237858 145.271222,146.212094 154.100356,138.016067 C159.666357,141.692178 166.346439,143.837667 173.534118,143.837667 C191.098996,143.837667 205.651246,131.04432 208.247468,114.3372 C227.259331,110.893299 241.675342,94.3867743 241.675342,74.5279239" id="Fill-15" stroke="#103AF3" stroke-width="2" fill="#FFFFFF"></path>
                    <path d="M82.176426,56.9984765 C81.7193678,56.0914408 80.6569272,55.7393103 79.7208369,56.20373 L77.2081156,57.4541748 C77.046607,57.5359388 77.0125474,57.6351459 77.0916536,57.793223 L78.717726,61.0147263 C78.7968322,61.1728034 78.9001098,61.2044188 79.0616184,61.1281057 L81.5743397,59.877661 C82.4884561,59.4219627 82.852125,58.3339559 82.3950668,57.4269201 L82.176426,56.9984765 Z M79.2363113,51.172516 C78.7902401,50.2883742 77.660779,49.9133498 76.7686365,50.3559658 L74.2559152,51.6053203 C74.0944066,51.6870844 74.060347,51.7862914 74.1405519,51.9443686 L75.6633468,54.9587362 C75.7435517,55.1211741 75.8457306,55.1527896 76.0050417,55.0764765 L78.5199605,53.8260317 C79.4088068,53.3834157 79.7977457,52.2823266 79.3406875,51.3752908 L79.2363113,51.172516 Z M82.7741175,62.2597201 L77.6355089,64.8140287 C77.4740004,64.891432 77.3718215,64.8598166 77.2916166,64.6973787 L70.3137883,50.8705342 C70.2335833,50.712457 70.267643,50.6088892 70.4269541,50.5314859 L75.5655627,47.9771773 C78.1716733,46.6820349 80.6393481,47.4996753 81.9446008,50.0801484 L82.0577667,50.3058172 C82.3214541,50.829107 82.4357186,51.5115642 82.3335397,52.098085 C82.1742286,52.9735053 82.0259044,53.4695405 82.0720497,53.5643868 C82.1170963,53.6548723 82.5972272,53.8129495 83.3410454,54.2097776 C83.9365395,54.5346534 84.4727039,55.0895587 84.748477,55.6357425 L84.9187751,55.9737005 C86.2130409,58.5367307 85.4033008,60.9514954 82.7741175,62.2597201 L82.7741175,62.2597201 Z" id="Fill-17" fill="#002FF7"></path>
                    <path d="M95.5245028,47.6076038 C95.4607784,47.4680598 95.2399402,47.0526985 94.8828635,46.3353553 L94.8103494,46.3571591 C94.844409,47.160627 94.8674817,47.626137 94.8828635,47.7787632 L94.9312062,51.2357469 C94.9377983,51.2630016 94.9268114,51.3175109 94.9334035,51.3436754 C94.9740554,51.4886703 95.0927147,51.533368 95.2652102,51.4886703 L97.0659755,51.0013566 C97.2395698,50.9555688 97.3164786,50.8563617 97.2758268,50.7080963 C97.2681359,50.6852023 97.2318789,50.6405047 97.2252867,50.6176107 L95.5245028,47.6076038 Z M103.360414,54.9271208 C103.401066,55.0710255 103.32196,55.1713227 103.149464,55.2203812 L100.658717,55.8930267 C100.511491,55.9333636 100.422497,55.9017482 100.365364,55.7894589 L98.9194784,53.4193919 C98.8623461,53.3027419 98.7810425,53.2983811 98.6327183,53.338718 L95.1080965,54.2904515 C94.960871,54.3318786 94.8927517,54.3765763 94.9015413,54.503038 L94.8674817,57.2742939 C94.8762713,57.4051164 94.7894742,57.4770687 94.6675187,57.5130449 L92.2020414,58.1758787 C92.0295459,58.2260273 91.9086891,58.1758787 91.8702347,58.031974 C91.8636425,58.0047193 91.8812217,57.9731039 91.8680373,57.9284062 L92.3569577,41.7642003 C92.3723395,41.6279269 92.4096952,41.564696 92.5569207,41.5243591 L94.332416,41.0457669 C94.4554701,41.0097907 94.5422672,41.0414062 94.6257682,41.1504249 L103.308775,54.8322745 C103.32196,54.8824231 103.353822,54.8998661 103.360414,54.9271208 L103.360414,54.9271208 Z" id="Fill-19" fill="#002FF7"></path>
                    <path d="M121.013188,53.2619689 C121.01978,53.3655366 120.924193,53.4691044 120.747303,53.4832769 L117.765438,53.6904124 L117.554488,53.5781231 L113.109158,47.5079607 C113.024558,47.4131144 112.945452,47.3684167 112.892714,47.3727775 C112.790535,47.3771382 112.718021,47.4087537 112.671876,47.4905177 L111.746773,48.8979494 L112.092862,53.8310466 C112.106047,54.0065667 112.033533,54.0883308 111.855544,54.101413 L109.436212,54.2682117 C109.257124,54.2769332 109.174722,54.2093415 109.163735,54.0338214 L108.07932,38.6142133 C108.067234,38.4332423 108.137551,38.3525684 108.31554,38.3427567 L110.737069,38.1759581 C110.889788,38.1628758 110.996362,38.2304674 111.009546,38.4103483 L111.403979,44.0204518 C111.414966,44.1959719 111.525934,44.3180729 111.653383,44.3093514 C111.731391,44.3039005 111.803905,44.2461205 111.872024,44.1414626 L115.99214,37.9143131 L116.187708,37.7965729 L119.119033,37.5937981 C119.295924,37.5807159 119.403596,37.6526682 119.412386,37.7791299 C119.41678,37.8281884 119.395905,37.9055916 119.350858,37.9862655 L114.835211,44.394386 C114.812139,44.4445346 114.791264,44.4979538 114.791264,44.5252085 C114.796757,44.5753571 114.825323,44.6244155 114.852791,44.6702034 L120.949463,53.0908095 C120.979128,53.1398679 121.008793,53.2118202 121.013188,53.2619689" id="Fill-21" fill="#002FF7"></path>
                    <path d="M129.99526,54.281839 L127.580323,54.043088 C127.403433,54.0245548 127.334215,53.943881 127.352893,53.7672706 L128.913043,38.3879995 C128.930622,38.2124794 129.015222,38.1448877 129.192112,38.1623307 L131.604852,38.4021719 C131.757571,38.4196149 131.853158,38.5057397 131.83448,38.6812599 L130.275428,54.0561702 C130.25675,54.2316904 130.172151,54.3003722 129.99526,54.281839" id="Fill-23" fill="#002FF7"></path>
                    <path d="M147.700222,58.0995656 L145.655546,57.5402996 L145.469866,57.3549678 L143.150516,46.1543842 L140.578465,55.8886659 C140.530122,56.0598253 140.436733,56.1099739 140.264237,56.0641861 L137.974551,55.4373284 C137.802056,55.3915406 137.747121,55.2966943 137.794365,55.1255349 L141.935356,40.2248559 C141.983699,40.0536966 142.077088,39.9991872 142.249584,40.0438849 L144.316234,40.6129626 L144.50521,40.7939337 L146.772922,52.0882733 L149.396611,42.2645962 C149.443855,42.0934368 149.537245,42.0389275 149.710839,42.0836252 L151.975255,42.7072122 C152.123579,42.7475492 152.200488,42.8467562 152.152145,43.0179156 L148.01445,57.9185945 C147.966107,58.0908441 147.872718,58.1442633 147.700222,58.0995656" id="Fill-25" fill="#002FF7"></path>
                    <path d="M170.110027,51.3982938 C170.662672,52.4808497 170.675857,53.7759921 170.535223,54.0474487 C170.498966,54.1150404 170.418761,54.1553773 170.305595,54.1553773 L167.824736,54.1063189 C167.767604,54.1008679 167.722557,54.0790642 167.699485,54.0692525 C167.563246,53.9973001 167.590714,53.839223 167.584122,53.5241589 C167.563246,52.6258446 167.333619,52.0207907 166.676597,51.6828327 L165.180171,50.9109801 C164.272647,50.4411094 163.169555,50.7845184 162.699312,51.6871934 L159.206553,58.3427864 C158.735211,59.2411007 159.083498,60.337829 159.988825,60.8076997 L161.100707,61.380048 C162.008231,61.8455579 163.073968,61.5108705 163.558494,60.5907524 L164.113336,59.534361 C164.195738,59.3762839 164.140803,59.2639946 164.004565,59.1920422 L161.87419,58.0909531 C161.714879,58.0091891 161.683017,57.9056213 161.76432,57.7475442 L162.767431,55.8386263 C162.849834,55.6805492 162.95421,55.6489338 163.113521,55.7306978 L167.850006,58.1759878 C168.009318,58.2577518 168.04118,58.3613196 167.958777,58.5193967 L166.166802,61.9349533 C164.916484,64.3224633 162.401565,65.0539789 159.861376,63.7403033 L158.751692,63.1668649 C156.18843,61.8455579 155.372098,59.3948171 156.623515,57.007307 L160.114077,50.3517141 C161.364395,47.9685648 163.879313,47.2381394 166.419502,48.546364 L167.913731,49.3182166 C168.957494,49.8589494 169.666153,50.5359557 170.110027,51.3982938" id="Fill-27" fill="#002FF7"></path>
                    <path d="M80.1390012,88.1471968 C79.4479204,89.1196438 80.2027257,90.0833693 81.1937509,91.7666184 C82.7088548,94.3449112 82.9450748,96.2134921 81.4871031,98.2663146 C79.9302487,100.464132 77.360395,100.870772 74.9970965,99.2213186 L74.1631851,98.6369782 C72.9710982,97.8062556 72.3096823,96.8458006 72.1393842,95.7665153 C71.9482108,94.5803916 72.1031271,93.7878255 72.2503526,93.5806899 C72.2800174,93.540353 72.3668146,93.505467 72.4799804,93.5240002 L74.9289773,93.9033853 C74.9861096,93.9099265 75.0069848,93.9251891 75.0476366,93.9546241 C75.1959608,94.0560115 75.0882884,94.2936724 75.0047874,94.8529384 C74.9245825,95.4481806 75.2267243,96.1251869 75.7068552,96.4620547 L76.5440627,97.0442147 C77.3581976,97.6143826 78.5173236,97.4323214 79.1062255,96.6037791 C79.8412542,95.5659208 79.2292796,94.5803916 78.3261502,92.9887183 C76.8077502,90.2839638 76.3001519,88.5353035 77.7559262,86.4824809 C79.3160767,84.2846635 81.9057069,83.8943765 84.2459327,85.5274769 L84.5590616,85.7466045 C85.5215206,86.4192501 86.1258043,87.1496755 86.4565123,88.0948678 C86.8586356,89.2439251 86.7201997,90.5412479 86.5422107,90.791991 C86.482881,90.8726649 86.4125644,90.8868373 86.2993985,90.8683041 L83.8504016,90.4910993 C83.7932693,90.4823778 83.7526175,90.4529428 83.7295449,90.4398605 C83.6251686,90.3646376 83.6724126,90.2120114 83.6790048,89.9383744 C83.7526175,88.9975428 83.663623,88.3750459 83.0153915,87.9237084 L82.7022627,87.7045808 C81.8881277,87.1365932 80.7410875,87.2968508 80.1390012,88.1471968" id="Fill-29" fill="#002FF7"></path>
                    <path d="M93.6575959,108.986671 L92.4885817,108.539694 C89.7967726,107.508377 88.709062,105.162294 89.6847055,102.655953 L93.8531641,91.9383229 C93.9168886,91.7726144 94.01687,91.7279167 94.1827734,91.793328 L96.4252151,92.6513053 C96.5658484,92.7047245 96.6339677,92.8137432 96.5702432,92.9805418 L92.4028833,103.695992 C92.0337209,104.641184 92.5028648,105.689944 93.4554356,106.055157 L94.6244498,106.502134 C95.5770206,106.868437 96.6021054,106.41928 96.9800574,105.449013 L101.148516,94.7335629 C101.211142,94.5667643 101.312222,94.5231568 101.478125,94.5863876 L103.742541,95.4552668 C103.910642,95.5184977 103.953491,95.6177047 103.890865,95.782323 L99.7202091,106.497773 C98.7445657,109.007384 96.327431,110.011447 93.6575959,108.986671" id="Fill-31" fill="#002FF7"></path>
                    <path d="M117.868386,102.524586 C117.987045,101.543417 117.277287,100.615668 116.263189,100.493567 L113.977898,100.22102 C113.799909,100.200307 113.716408,100.265718 113.693335,100.442328 L113.289014,103.790293 C113.265942,103.966904 113.334061,104.049758 113.51205,104.072652 L115.794045,104.345199 C116.809241,104.4673 117.717864,103.758678 117.840918,102.750255 L117.868386,102.524586 Z M120.733789,103.095844 C120.417364,105.69049 118.289187,107.32359 115.474324,106.987812 L113.19123,106.714175 C113.013241,106.694552 112.927543,106.759963 112.906668,106.935483 L112.151862,113.153911 C112.12879,113.330522 112.045289,113.398113 111.8673,113.375219 L109.456757,113.08632 C109.279867,113.066696 109.213945,112.982752 109.233722,112.803961 L111.09931,97.4497644 C111.119087,97.2742442 111.205884,97.208833 111.382774,97.2284564 L116.584008,97.8520434 C119.448313,98.1921819 121.07878,100.252636 120.733789,103.095844 L120.733789,103.095844 Z" id="Fill-33" fill="#002FF7"></path>
                    <path d="M135.573348,101.849869 C135.454689,100.868701 134.54277,100.132824 133.528672,100.252745 L131.245578,100.523111 C131.068688,100.543825 131.000569,100.628859 131.021444,100.80547 L131.423567,104.153435 C131.443344,104.330045 131.530141,104.395456 131.70813,104.374743 L133.990125,104.104376 C135.005321,103.984456 135.721672,103.083961 135.600815,102.075538 L135.573348,101.849869 Z M138.49039,101.734309 C138.80242,104.327865 137.124709,106.414483 134.30655,106.74808 L132.023456,107.017356 C131.846566,107.03916 131.780644,107.123105 131.80042,107.298625 L132.546436,113.517053 C132.567311,113.693663 132.50139,113.776517 132.323401,113.799411 L129.913957,114.08395 C129.735968,114.103573 129.649171,114.038162 129.629394,113.860462 L127.786878,98.5062648 C127.767102,98.3296545 127.833024,98.2468002 128.009914,98.2239063 L133.211148,97.6101309 C136.07765,97.2721729 138.149794,98.8900107 138.49039,101.734309 L138.49039,101.734309 Z" id="Fill-35" fill="#002FF7"></path>
                    <path d="M158.024024,107.303422 L149.55856,110.37884 C149.38936,110.43989 149.291576,110.394102 149.231148,110.227304 L143.878293,95.7103707 C143.816766,95.5457524 143.861813,95.4465453 144.029913,95.3854949 L146.308612,94.5591329 C146.451443,94.5078941 146.574497,94.5438703 146.636024,94.710669 L151.06817,106.727803 C151.129697,106.894601 151.227481,106.940389 151.395582,106.879339 L157.103316,104.805803 C157.246146,104.753474 157.369201,104.78945 157.430728,104.957339 L158.176743,106.978546 C158.23827,107.145344 158.192125,107.242371 158.024024,107.303422" id="Fill-37" fill="#002FF7"></path>
                    <path d="M166.255686,94.5191231 L169.996752,100.484628 C170.089042,100.636164 170.067068,100.739731 169.914349,100.834578 L167.852094,102.106826 C167.699375,102.201672 167.594999,102.176598 167.499412,102.026152 L163.759445,96.0573772 L155.531299,91.3379568 C155.470871,91.2856278 155.420331,91.2561927 155.392863,91.2136754 C155.326942,91.1057469 155.373087,90.9880067 155.524707,90.8953408 L157.93525,89.406145 L158.209924,89.4148665 L162.92004,92.3638229 C163.031009,92.445587 163.145273,92.4368655 163.208998,92.3954384 C163.27492,92.3551014 163.333151,92.2580748 163.311177,92.1250719 L162.72667,86.628348 L162.839836,86.3808755 L165.228404,84.904762 C165.380024,84.8120961 165.507473,84.8240881 165.575593,84.9320167 C165.60306,84.974534 165.607455,85.0312237 165.626133,85.1075368 L166.255686,94.5191231 Z" id="Fill-39" fill="#002FF7"></path>
                    <polygon id="Fill-41" fill="#002FF7" points="45.902486 68.1357202 52.6177256 68.1357202 52.6177256 70.0936964 50.345619 70.0936964 50.345619 81.8568165 48.1745926 81.8568165 48.1745926 70.0936964 45.902486 70.0936964"></polygon>
                    <polygon id="Fill-43" fill="#002FF7" points="55.7372576 81.8564895 53.5651325 81.8564895 53.5651325 68.1353931 55.7372576 68.1353931 55.7372576 74.015863 58.2071298 74.015863 58.2071298 68.1353931 60.418808 68.1353931 60.418808 81.8564895 58.2071298 81.8564895 58.2071298 75.9760196 55.7372576 75.9760196"></polygon>
                    <polygon id="Fill-45" fill="#002FF7" points="64.1691023 73.9187273 67.1520662 73.9187273 67.1520662 75.8767036 64.1691023 75.8767036 64.1691023 79.8962238 67.9233519 79.8962238 67.9233519 81.8563805 61.9969772 81.8563805 61.9969772 68.1352841 67.9233519 68.1352841 67.9233519 70.0943505 64.1691023 70.0943505"></polygon>
                    <path d="M181.297845,76.7414401 L181.297845,78.5642331 C181.297845,80.7576898 180.190358,82.0124953 178.057786,82.0124953 C175.924115,82.0124953 174.816628,80.7576898 174.816628,78.5642331 L174.816628,71.4278675 C174.816628,69.2322305 175.924115,67.977425 178.057786,67.977425 C180.190358,67.977425 181.297845,69.2322305 181.297845,71.4278675 L181.297845,72.7611665 L179.242182,72.7611665 L179.242182,71.2905039 C179.242182,70.3104256 178.808196,69.9386718 178.117115,69.9386718 C177.424936,69.9386718 176.99095,70.3104256 176.99095,71.2905039 L176.99095,78.6994163 C176.99095,79.681675 177.424936,80.0338055 178.117115,80.0338055 C178.808196,80.0338055 179.242182,79.681675 179.242182,78.6994163 L179.242182,76.7414401 L181.297845,76.7414401 Z" id="Fill-47" fill="#002FF7"></path>
                    <path d="M186.589282,78.6999614 C186.589282,79.6811299 187.023268,80.0539739 187.714349,80.0539739 C188.406528,80.0539739 188.840514,79.6811299 188.840514,78.6999614 L188.840514,71.2899589 C188.840514,70.3109707 188.406528,69.9381267 187.714349,69.9381267 C187.023268,69.9381267 186.589282,70.3109707 186.589282,71.2899589 L186.589282,78.6999614 Z M184.41496,71.4273224 C184.41496,69.2327756 185.581777,67.9779701 187.714349,67.9779701 C189.848019,67.9779701 191.014836,69.2327756 191.014836,71.4273224 L191.014836,78.5647782 C191.014836,80.7582349 189.848019,82.0119502 187.714349,82.0119502 C185.581777,82.0119502 184.41496,80.7582349 184.41496,78.5647782 L184.41496,71.4273224 Z" id="Fill-49" fill="#002FF7"></path>
                    <path d="M196.032258,80.5338743 C196.032258,79.879762 195.497193,79.3488408 194.837974,79.3488408 C194.178756,79.3488408 193.64369,79.879762 193.64369,80.5338743 C193.64369,81.1879867 194.178756,81.7189079 194.837974,81.7189079 C195.497193,81.7189079 196.032258,81.1879867 196.032258,80.5338743" id="Fill-51" fill="#002FF7"></path>
                </g>
            </g>
        </g>
    </g>
</svg>