<?xml version="1.0" encoding="UTF-8" standalone="no"?>
<svg width="343px" height="217px" viewBox="0 0 343 217" version="1.1" xmlns="http://www.w3.org/2000/svg" xmlns:xlink="http://www.w3.org/1999/xlink">
    <!-- Generator: Sketch 39.1 (31720) - http://www.bohemiancoding.com/sketch -->
    <title>Group Copy</title>
    <desc>Created with Sketch.</desc>
    <defs></defs>
    <g id="Page-1" stroke="none" stroke-width="1" fill="none" fill-rule="evenodd">
        <g id="Group-Copy">
            <g id="Page-1-Copy">
                <g id="Group-53" transform="translate(0.000000, 0.132043)">
                    <path d="M342.9459,106.450179 C342.9459,77.8143214 322.097736,54.0569929 294.73725,49.4525214 C289.526768,27.5217214 269.802709,11.2013071 246.251081,11.2013071 C236.051509,11.2013071 226.572236,14.2657643 218.673881,19.5148929 C206.145027,7.80985 189.322436,0.631421429 170.812909,0.631421429 C152.638586,0.631421429 136.0826,7.53890714 123.63014,18.8686786 C115.937586,14.0181786 106.832495,11.2013071 97.0632314,11.2013071 C73.510045,11.2013071 53.787545,27.5217214 48.5755041,49.4525214 C21.2165768,54.0569929 0.368413182,77.8143214 0.368413182,106.450179 C0.368413182,134.815093 20.825245,158.391793 47.8037541,163.310807 C51.4863268,187.174021 72.138045,205.447093 97.0632314,205.447093 C106.832495,205.447093 115.937586,202.630221 123.63014,197.779721 C136.0826,209.107936 152.638586,216.016979 170.812909,216.016979 C189.322436,216.016979 206.145027,208.83855 218.673881,197.13195 C226.572236,202.382636 236.051509,205.447093 246.251081,205.447093 C271.176268,205.447093 291.826427,187.174021 295.510559,163.310807 C322.489068,158.391793 342.9459,134.815093 342.9459,106.450179" id="Fill-15" fill="#002FF7"></path>
                    <path d="M116.611269,81.4124114 C115.962687,80.1168686 114.455046,79.6139114 113.126701,80.2772543 L109.56106,82.0632971 C109.331874,82.1800829 109.283542,82.3217829 109.395796,82.5475686 L111.703251,87.1489257 C111.815505,87.3747114 111.96206,87.4198686 112.191246,87.3108686 L115.756887,85.5248257 C117.054051,84.87394 117.57011,83.3199114 116.921528,82.0243686 L116.611269,81.4124114 Z M112.439142,73.09104 C111.806151,71.8281971 110.203405,71.29254 108.937424,71.92474 L105.371783,73.7092257 C105.142596,73.8260114 105.094265,73.9677114 105.208078,74.1934971 L107.368978,78.4989971 C107.482792,78.7310114 107.627787,78.7761686 107.853855,78.6671686 L111.422615,76.8811257 C112.683919,76.2489257 113.235837,74.6762114 112.587255,73.3806686 L112.439142,73.09104 Z M117.459415,88.9271829 L110.167546,92.5755686 C109.93836,92.6861257 109.793365,92.6409686 109.679551,92.4089543 L99.7777645,72.6597114 C99.6639509,72.4339257 99.7122827,72.2859971 99.9383509,72.17544 L107.230219,68.5270543 C110.928383,66.6771686 114.430101,67.8450257 116.282301,71.5307829 L116.442887,71.8531114 C116.817069,72.60054 116.979215,73.5753114 116.834219,74.4130543 C116.608151,75.66344 116.397674,76.37194 116.463155,76.5074114 C116.527078,76.6366543 117.208401,76.86244 118.263905,77.42924 C119.108933,77.8932686 119.869769,78.6858543 120.261101,79.4659829 L120.50276,79.9486971 C122.339369,83.60954 121.190319,87.0586114 117.459415,88.9271829 L117.459415,88.9271829 Z" id="Fill-17" fill="#FFFFFF"></path>
                    <path d="M135.552665,67.9991829 C135.462237,67.7998686 135.14886,67.2065971 134.642155,66.1819971 L134.539255,66.21314 C134.587587,67.3607543 134.620328,68.0256543 134.642155,68.2436543 L134.710755,73.1813543 C134.72011,73.2202829 134.704519,73.29814 134.713874,73.3355114 C134.77156,73.5426114 134.939942,73.6064543 135.184719,73.5426114 L137.740069,72.8465686 C137.986405,72.7811686 138.095542,72.6394686 138.037855,72.4276971 C138.026942,72.3949971 137.975492,72.3311543 137.966137,72.2984543 L135.552665,67.9991829 Z M146.672101,78.45384 C146.729787,78.6593829 146.617533,78.80264 146.372755,78.8727114 L142.838296,79.8334686 C142.629378,79.8910829 142.503092,79.8459257 142.422019,79.68554 L140.370255,76.3003114 C140.289183,76.1336971 140.17381,76.1274686 139.963333,76.1850829 L134.961769,77.5444686 C134.752851,77.60364 134.656187,77.6674829 134.66866,77.8481114 L134.620328,81.8063686 C134.632801,81.9932257 134.509633,82.0959971 134.336574,82.1473829 L130.837974,83.0941257 C130.593196,83.1657543 130.421696,83.0941257 130.367128,82.8885829 C130.357774,82.8496543 130.382719,82.8044971 130.36401,82.7406543 L131.057805,59.6528971 C131.079633,59.4582543 131.132642,59.36794 131.34156,59.3103257 L133.861051,58.62674 C134.035669,58.5753543 134.158837,58.6205114 134.277328,58.7762257 L146.598824,78.3183686 C146.617533,78.3899971 146.662746,78.4149114 146.672101,78.45384 L146.672101,78.45384 Z" id="Fill-19" fill="#FFFFFF"></path>
                    <path d="M171.722015,76.07546 C171.731369,76.2233886 171.595728,76.3713171 171.344715,76.39156 L167.113342,76.6874171 L166.813996,76.5270314 L160.505915,67.85686 C160.385865,67.7213886 160.27361,67.6575457 160.198774,67.6637743 C160.053778,67.6700029 159.950878,67.71516 159.885396,67.8319457 L158.572642,69.8422171 L159.063755,76.8882886 C159.082465,77.1389886 158.979565,77.2557743 158.726992,77.27446 L155.293874,77.5127029 C155.039742,77.52516 154.92281,77.4286171 154.907219,77.1779171 L153.368396,55.1536886 C153.351246,54.8952029 153.451028,54.7799743 153.703601,54.76596 L157.139837,54.5277171 C157.356551,54.5090314 157.507783,54.6055743 157.526492,54.8625029 L158.086205,62.87556 C158.101796,63.12626 158.259265,63.30066 158.440119,63.2882029 C158.550815,63.2804171 158.653715,63.1978886 158.750378,63.0484029 L164.596969,54.1540029 L164.874487,53.9858314 L169.034142,53.6962029 C169.285155,53.6775171 169.437946,53.7802886 169.450419,53.9609171 C169.456655,54.0309886 169.427033,54.1415457 169.36311,54.2567743 L162.955246,63.40966 C162.922505,63.4812886 162.892883,63.5575886 162.892883,63.5965171 C162.900678,63.6681457 162.941215,63.7382171 162.980192,63.8036171 L171.631587,75.8309886 C171.673683,75.90106 171.715778,76.0038314 171.722015,76.07546" id="Fill-21" fill="#FFFFFF"></path>
                    <path d="M184.467895,77.5321671 L181.041013,77.1911529 C180.789999,77.1646814 180.691776,77.0494529 180.718281,76.7971957 L182.93219,54.8305814 C182.957135,54.5798814 183.077185,54.4833386 183.328199,54.5082529 L186.751963,54.8508243 C186.968676,54.8757386 187.104317,54.9987529 187.077813,55.2494529 L184.865463,77.2098386 C184.838958,77.4605386 184.718908,77.5586386 184.467895,77.5321671" id="Fill-23" fill="#FFFFFF"></path>
                    <path d="M209.591865,82.9851257 L206.690397,82.1863114 L206.42691,81.9215971 L203.13567,65.9235114 L199.485838,79.82724 C199.417238,80.0717114 199.284715,80.14334 199.039938,80.07794 L195.790792,79.1825829 C195.546015,79.1171829 195.46806,78.9817114 195.535101,78.73724 L201.411315,57.4542114 C201.479915,57.20974 201.612438,57.1318829 201.857215,57.1957257 L204.789865,58.0085543 L205.058029,58.26704 L208.275992,74.39904 L211.999101,60.3676257 C212.066142,60.1231543 212.198665,60.0452971 212.445001,60.10914 L215.658288,60.9998257 C215.868765,61.05744 215.977901,61.19914 215.909301,61.4436114 L210.037765,82.72664 C209.969165,82.9726686 209.836642,83.0489686 209.591865,82.9851257" id="Fill-25" fill="#FFFFFF"></path>
                    <path d="M241.392175,73.4135243 C242.176397,74.9597671 242.195106,76.8096529 241.995543,77.1973814 C241.944093,77.2939243 241.830279,77.3515386 241.669693,77.3515386 L238.149265,77.2814671 C238.068193,77.2736814 238.00427,77.2425386 237.971529,77.2285243 C237.778202,77.1257529 237.817179,76.8999671 237.807825,76.4499529 C237.778202,75.1668671 237.452352,74.3026529 236.520015,73.8199386 L234.396534,72.7174814 C233.108725,72.0463529 231.543397,72.5368529 230.876106,73.8261671 L225.919756,83.3325243 C225.250906,84.61561 225.745138,86.1820957 227.029829,86.8532243 L228.607629,87.6707243 C229.895438,88.3356243 231.407756,87.8575814 232.095315,86.5433529 L232.882656,85.0344814 C232.999588,84.8086957 232.921634,84.64831 232.728306,84.5455386 L229.705229,82.9728243 C229.479161,82.8560386 229.433947,82.70811 229.54932,82.4823243 L230.97277,79.7557671 C231.089702,79.5299814 231.237815,79.4848243 231.463884,79.60161 L238.185125,83.0942814 C238.411193,83.2110671 238.456406,83.3589957 238.339475,83.5847814 L235.796597,88.46331 C234.022352,91.8734529 230.453593,92.9182957 226.848975,91.0419386 L225.274293,90.2228814 C221.636934,88.3356243 220.478529,84.8351671 222.254334,81.4250243 L227.207565,71.9186671 C228.981811,68.5147529 232.55057,67.4714671 236.155188,69.3400386 L238.275552,70.4424957 C239.756688,71.2148386 240.762302,72.1818243 241.392175,73.4135243" id="Fill-27" fill="#FFFFFF"></path>
                    <path d="M113.720091,125.902941 C112.739423,127.291913 113.810518,128.668427 115.216818,131.072656 C117.366805,134.755299 117.702009,137.424241 115.633095,140.356341 C113.423864,143.495541 109.77715,144.076356 106.423545,141.720399 L105.240195,140.88577 C103.548582,139.699227 102.610009,138.327384 102.36835,136.785813 C102.097068,135.091641 102.3169,133.959599 102.525818,133.663741 C102.567914,133.606127 102.691082,133.556299 102.851668,133.58277 L106.326882,134.124656 C106.407955,134.133999 106.437577,134.155799 106.495264,134.197841 C106.705741,134.342656 106.55295,134.682113 106.434459,135.480927 C106.320645,136.331127 106.749395,137.298113 107.430718,137.77927 L108.618745,138.610784 C109.774032,139.42517 111.418873,139.165127 112.254545,137.981699 C113.297577,136.499299 112.429164,135.091641 111.147591,132.818213 C108.992927,128.954941 108.272627,126.457284 110.338423,123.525184 C112.552332,120.385984 116.227109,119.828527 119.547973,122.161127 L119.992314,122.474113 C121.358077,123.43487 122.215577,124.478156 122.684864,125.828199 C123.255491,127.469427 123.059045,129.322427 122.806473,129.68057 C122.722282,129.795799 122.6225,129.816041 122.461914,129.78957 L118.9867,129.250799 C118.905627,129.238341 118.847941,129.196299 118.8152,129.177613 C118.667086,129.07017 118.734127,128.85217 118.743482,128.461327 C118.847941,127.117513 118.721655,126.228384 117.801791,125.583727 L117.35745,125.270741 C116.202164,124.45947 114.574473,124.68837 113.720091,125.902941" id="Fill-29" fill="#FFFFFF"></path>
                    <path d="M132.903457,155.668506 L131.244585,155.030077 C127.424812,153.55702 125.881312,150.206049 127.265785,146.626177 L133.180975,131.317906 C133.271403,131.08122 133.41328,131.017377 133.648703,131.110806 L136.830807,132.336277 C137.030371,132.412577 137.127035,132.568291 137.036607,132.806534 L131.122975,148.111691 C130.599121,149.461734 131.264853,150.959706 132.616585,151.481349 L134.275457,152.119777 C135.627189,152.642977 137.081821,152.001434 137.618148,150.615577 L143.533339,135.31042 C143.622207,135.072177 143.765644,135.009891 144.001066,135.100206 L147.214353,136.341249 C147.452894,136.431563 147.513698,136.573263 147.42483,136.808391 L141.506521,152.113549 C140.122048,155.698091 136.692048,157.13222 132.903457,155.668506" id="Fill-31" fill="#FFFFFF"></path>
                    <path d="M167.259429,146.438541 C167.42781,145.037113 166.420638,143.711984 164.981597,143.537584 L161.738688,143.148299 C161.486115,143.118713 161.367624,143.212141 161.334883,143.464399 L160.761138,148.246384 C160.728397,148.498641 160.82506,148.616984 161.077633,148.649684 L164.315865,149.03897 C165.756465,149.21337 167.045833,148.201227 167.220451,146.76087 L167.259429,146.438541 Z M171.325538,147.254484 C170.87652,150.960484 167.85656,153.293084 163.86217,152.813484 L160.622379,152.422641 C160.369806,152.394613 160.248197,152.488041 160.218574,152.738741 L159.147479,161.620684 C159.114738,161.872941 158.996247,161.969484 158.743674,161.936784 L155.323029,161.524141 C155.072015,161.496113 154.97847,161.376213 155.006533,161.120841 L157.65387,139.190041 C157.681933,138.939341 157.805101,138.845913 158.056115,138.873941 L165.436851,139.764627 C169.501401,140.250456 171.815092,143.193456 171.325538,147.254484 L171.325538,147.254484 Z" id="Fill-33" fill="#FFFFFF"></path>
                    <path d="M192.383399,145.474826 C192.215017,144.073397 190.920972,143.022326 189.481931,143.193611 L186.24214,143.579783 C185.991126,143.609369 185.894463,143.730826 185.924085,143.983083 L186.494713,148.765069 C186.522776,149.017326 186.645945,149.110754 186.898517,149.081169 L190.136749,148.694997 C191.577349,148.523711 192.593876,147.237511 192.422376,145.797154 L192.383399,145.474826 Z M196.522785,145.309769 C196.965567,149.014211 194.584835,151.994583 190.585767,152.471069 L187.345976,152.855683 C187.094963,152.886826 187.001417,153.006726 187.029481,153.257426 L188.088104,162.139369 C188.117726,162.391626 188.024181,162.509969 187.771608,162.542669 L184.352522,162.949083 C184.099949,162.977111 183.976781,162.883683 183.948717,162.629869 L181.334122,140.699069 C181.306058,140.446811 181.399604,140.328469 181.650617,140.295769 L189.031354,139.419097 C193.099022,138.936383 196.039467,141.247183 196.522785,145.309769 L196.522785,145.309769 Z" id="Fill-35" fill="#FFFFFF"></path>
                    <path d="M224.241707,153.264277 L212.228911,157.656977 C211.988811,157.744177 211.850052,157.678777 211.764302,157.440534 L204.168411,136.70562 C204.081102,136.470491 204.145025,136.328791 204.383566,136.241591 L207.61712,135.061277 C207.819802,134.988091 207.99442,135.039477 208.08173,135.27772 L214.371102,152.442106 C214.458411,152.680349 214.59717,152.745749 214.835711,152.658549 L222.935189,149.696863 C223.13787,149.62212 223.312489,149.673506 223.399798,149.913306 L224.45842,152.800249 C224.54573,153.038491 224.480248,153.177077 224.241707,153.264277" id="Fill-37" fill="#FFFFFF"></path>
                    <path d="M235.922728,135.00413 L241.231432,143.524816 C241.362396,143.741259 241.331214,143.889187 241.1145,144.024659 L238.188087,145.841844 C237.971373,145.977316 237.82326,145.941501 237.687619,145.726616 L232.380473,137.201259 L220.704441,130.460387 C220.618691,130.385644 220.546973,130.343601 220.507996,130.282873 C220.41445,130.128716 220.479932,129.960544 220.695087,129.828187 L224.115732,127.70113 L224.505505,127.713587 L231.189328,131.925659 C231.346796,132.042444 231.508941,132.029987 231.599369,131.970816 C231.692914,131.913201 231.775546,131.774616 231.744364,131.584644 L230.914928,123.73353 L231.075514,123.380059 L234.464978,121.271687 C234.680132,121.13933 234.860987,121.156459 234.95765,121.310616 C234.996628,121.371344 235.002864,121.452316 235.029369,121.561316 L235.922728,135.00413 Z" id="Fill-39" fill="#FFFFFF"></path>
                    <polygon id="Fill-41" fill="#FFFFFF" points="65.1372591 97.3200271 74.6664227 97.3200271 74.6664227 100.116656 71.4422227 100.116656 71.4422227 116.918227 68.3614591 116.918227 68.3614591 100.116656 65.1372591 100.116656"></polygon>
                    <polygon id="Fill-43" fill="#FFFFFF" points="79.0931495 116.91776 76.0108268 116.91776 76.0108268 97.31956 79.0931495 97.31956 79.0931495 105.718789 82.5979859 105.718789 82.5979859 97.31956 85.7364359 97.31956 85.7364359 116.91776 82.5979859 116.91776 82.5979859 108.518531 79.0931495 108.518531"></polygon>
                    <polygon id="Fill-45" fill="#FFFFFF" points="91.0582368 105.580047 95.2911686 105.580047 95.2911686 108.376676 91.0582368 108.376676 91.0582368 114.117861 96.3856505 114.117861 96.3856505 116.917604 87.9759141 116.917604 87.9759141 97.3194043 96.3856505 97.3194043 96.3856505 100.11759 91.0582368 100.11759"></polygon>
                    <path d="M257.268085,109.611801 L257.268085,112.215344 C257.268085,115.348316 255.696522,117.140587 252.670326,117.140587 C249.642572,117.140587 248.071008,115.348316 248.071008,112.215344 L248.071008,102.022287 C248.071008,98.8862014 249.642572,97.09393 252.670326,97.09393 C255.696522,97.09393 257.268085,98.8862014 257.268085,102.022287 L257.268085,103.926673 L254.351026,103.926673 L254.351026,101.826087 C254.351026,100.426216 253.735185,99.89523 252.754517,99.89523 C251.77229,99.89523 251.156449,100.426216 251.156449,101.826087 L251.156449,112.40843 C251.156449,113.811416 251.77229,114.314373 252.754517,114.314373 C253.735185,114.314373 254.351026,113.811416 254.351026,112.40843 L254.351026,109.611801 L257.268085,109.611801 Z" id="Fill-47" fill="#FFFFFF"></path>
                    <path d="M264.776823,112.409209 C264.776823,113.810637 265.392664,114.34318 266.373332,114.34318 C267.35556,114.34318 267.9714,113.810637 267.9714,112.409209 L267.9714,101.825309 C267.9714,100.426994 267.35556,99.8944514 266.373332,99.8944514 C265.392664,99.8944514 264.776823,100.426994 264.776823,101.825309 L264.776823,112.409209 Z M261.691382,102.021509 C261.691382,98.88698 263.347137,97.0947086 266.373332,97.0947086 C269.401087,97.0947086 271.056841,98.88698 271.056841,102.021509 L271.056841,112.216123 C271.056841,115.349094 269.401087,117.139809 266.373332,117.139809 C263.347137,117.139809 261.691382,115.349094 261.691382,112.216123 L261.691382,102.021509 Z" id="Fill-49" fill="#FFFFFF"></path>
                    <path d="M278.176742,115.028634 C278.176742,114.094349 277.417465,113.33602 276.48201,113.33602 C275.546555,113.33602 274.787278,114.094349 274.787278,115.028634 C274.787278,115.96292 275.546555,116.721249 276.48201,116.721249 C277.417465,116.721249 278.176742,115.96292 278.176742,115.028634" id="Fill-51" fill="#FFFFFF"></path>
                </g>
            </g>
        </g>
    </g>
</svg>