<?xml version="1.0" encoding="UTF-8" standalone="no"?>
<svg width="300px" height="300px" viewBox="0 0 300 300" version="1.1" xmlns="http://www.w3.org/2000/svg" xmlns:xlink="http://www.w3.org/1999/xlink">
    <!-- Generator: Sketch 39.1 (31720) - http://www.bohemiancoding.com/sketch -->
    <title>Artboard 3</title>
    <desc>Created with Sketch.</desc>
    <defs></defs>
    <g id="Page-1" stroke="none" stroke-width="1" fill="none" fill-rule="evenodd">
        <g id="Artboard-3" fill="#002FF8">
            <g id="Page-1" transform="translate(97.000000, 121.000000)">
                <g id="Group-519" transform="translate(0.000000, 0.557000)">
                    <path d="M71.108,51.8052 C71.108,56.1922 62.902,70.1352 52.778,70.1352 C42.655,70.1352 34.449,56.1922 34.449,51.8052 C34.449,47.4182 71.108,47.4182 71.108,51.8052" id="Fill-513"></path>
                    <path d="M22.1111,16.4576 C22.1111,25.2806 17.2401,32.4326 11.2311,32.4326 C5.2231,32.4326 0.3521,25.2806 0.3521,16.4576 C0.3521,7.6346 5.2231,0.4826 11.2311,0.4826 C17.2401,0.4826 22.1111,7.6346 22.1111,16.4576" id="Fill-515"></path>
                    <path d="M105.205,16.4576 C105.205,25.2806 100.334,32.4326 94.325,32.4326 C88.317,32.4326 83.446,25.2806 83.446,16.4576 C83.446,7.6346 88.317,0.4826 94.325,0.4826 C100.334,0.4826 105.205,7.6346 105.205,16.4576" id="Fill-517"></path>
                </g>
            </g>
        </g>
    </g>
</svg>