<?xml version="1.0" encoding="UTF-8" standalone="no"?>
<svg width="300px" height="300px" viewBox="0 0 300 300" version="1.1" xmlns="http://www.w3.org/2000/svg" xmlns:xlink="http://www.w3.org/1999/xlink">
    <!-- Generator: Sketch 39.1 (31720) - http://www.bohemiancoding.com/sketch -->
    <title>Artboard 3</title>
    <desc>Created with Sketch.</desc>
    <defs>
        <path d="M0.39,81.221 C0.39,125.618 36.382,161.61 80.779,161.61 C125.175,161.61 161.167,125.618 161.167,81.221 C161.167,36.825 125.175,0.833 80.779,0.833 C36.382,0.833 0.39,36.825 0.39,81.221 L0.39,81.221 Z" id="path-1"></path>
    </defs>
    <g id="Page-1" stroke="none" stroke-width="1" fill="none" fill-rule="evenodd">
        <g id="Artboard-3">
            <g id="Page-1-Copy-3" transform="translate(69.000000, 69.000000)">
                <path d="M80.7785,162.167 C125.1755,162.167 161.1675,126.176 161.1675,81.778 C161.1675,37.381 125.1755,1.39 80.7785,1.39 C36.3815,1.39 0.3895,37.381 0.3895,81.778 C0.3895,126.176 36.3815,162.167 80.7785,162.167" id="Fill-257" fill="#FFFFFF"></path>
                <g id="Group-512" transform="translate(0.000000, 0.557000)">
                    <mask id="mask-2" fill="white">
                        <use xlink:href="#path-1"></use>
                    </mask>
                    <g id="Clip-260"></g>
                    <polygon id="Fill-259" fill="#002FF8" mask="url(#mask-2)" points="225.825 -54.407 232.997 -54.407 232.997 -81.557 225.825 -81.557"></polygon>
                    <polygon id="Fill-261" fill="#002FF8" mask="url(#mask-2)" points="218.56 -27.25 225.732 -27.25 225.732 -54.4 218.56 -54.4"></polygon>
                    <polygon id="Fill-262" fill="#002FF8" mask="url(#mask-2)" points="211.325 -54.407 218.497 -54.407 218.497 -81.557 211.325 -81.557"></polygon>
                    <polygon id="Fill-263" fill="#002FF8" mask="url(#mask-2)" points="204.06 -27.25 211.232 -27.25 211.232 -54.4 204.06 -54.4"></polygon>
                    <polygon id="Fill-264" fill="#002FF8" mask="url(#mask-2)" points="196.825 -54.407 203.997 -54.407 203.997 -81.557 196.825 -81.557"></polygon>
                    <polygon id="Fill-265" fill="#002FF8" mask="url(#mask-2)" points="189.56 -27.25 196.732 -27.25 196.732 -54.4 189.56 -54.4"></polygon>
                    <polygon id="Fill-266" fill="#002FF8" mask="url(#mask-2)" points="182.325 -54.407 189.497 -54.407 189.497 -81.557 182.325 -81.557"></polygon>
                    <polygon id="Fill-267" fill="#002FF8" mask="url(#mask-2)" points="175.06 -27.25 182.232 -27.25 182.232 -54.4 175.06 -54.4"></polygon>
                    <polygon id="Fill-268" fill="#002FF8" mask="url(#mask-2)" points="167.825 -54.407 174.997 -54.407 174.997 -81.557 167.825 -81.557"></polygon>
                    <polygon id="Fill-269" fill="#002FF8" mask="url(#mask-2)" points="160.56 -27.25 167.732 -27.25 167.732 -54.4 160.56 -54.4"></polygon>
                    <polygon id="Fill-270" fill="#002FF8" mask="url(#mask-2)" points="153.325 -54.407 160.497 -54.407 160.497 -81.557 153.325 -81.557"></polygon>
                    <polygon id="Fill-271" fill="#002FF8" mask="url(#mask-2)" points="146.06 -27.25 153.232 -27.25 153.232 -54.4 146.06 -54.4"></polygon>
                    <polygon id="Fill-272" fill="#002FF8" mask="url(#mask-2)" points="138.825 -54.407 145.997 -54.407 145.997 -81.557 138.825 -81.557"></polygon>
                    <polygon id="Fill-273" fill="#002FF8" mask="url(#mask-2)" points="131.56 -27.25 138.732 -27.25 138.732 -54.4 131.56 -54.4"></polygon>
                    <polygon id="Fill-274" fill="#002FF8" mask="url(#mask-2)" points="124.325 -54.407 131.497 -54.407 131.497 -81.557 124.325 -81.557"></polygon>
                    <polygon id="Fill-275" fill="#002FF8" mask="url(#mask-2)" points="117.06 -27.25 124.232 -27.25 124.232 -54.4 117.06 -54.4"></polygon>
                    <polygon id="Fill-276" fill="#002FF8" mask="url(#mask-2)" points="109.825 -54.407 116.997 -54.407 116.997 -81.557 109.825 -81.557"></polygon>
                    <polygon id="Fill-277" fill="#002FF8" mask="url(#mask-2)" points="102.56 -27.25 109.732 -27.25 109.732 -54.4 102.56 -54.4"></polygon>
                    <polygon id="Fill-278" fill="#002FF8" mask="url(#mask-2)" points="95.325 -54.407 102.497 -54.407 102.497 -81.557 95.325 -81.557"></polygon>
                    <polygon id="Fill-279" fill="#002FF8" mask="url(#mask-2)" points="88.06 -27.25 95.232 -27.25 95.232 -54.4 88.06 -54.4"></polygon>
                    <polygon id="Fill-280" fill="#002FF8" mask="url(#mask-2)" points="80.825 -54.407 87.997 -54.407 87.997 -81.557 80.825 -81.557"></polygon>
                    <polygon id="Fill-281" fill="#002FF8" mask="url(#mask-2)" points="73.56 -27.25 80.732 -27.25 80.732 -54.4 73.56 -54.4"></polygon>
                    <polygon id="Fill-282" fill="#002FF8" mask="url(#mask-2)" points="66.325 -54.407 73.497 -54.407 73.497 -81.557 66.325 -81.557"></polygon>
                    <polygon id="Fill-283" fill="#002FF8" mask="url(#mask-2)" points="59.06 -27.25 66.232 -27.25 66.232 -54.4 59.06 -54.4"></polygon>
                    <polygon id="Fill-284" fill="#002FF8" mask="url(#mask-2)" points="51.825 -54.407 58.997 -54.407 58.997 -81.557 51.825 -81.557"></polygon>
                    <polygon id="Fill-285" fill="#002FF8" mask="url(#mask-2)" points="44.56 -27.25 51.732 -27.25 51.732 -54.4 44.56 -54.4"></polygon>
                    <polygon id="Fill-286" fill="#002FF8" mask="url(#mask-2)" points="37.325 -54.407 44.497 -54.407 44.497 -81.557 37.325 -81.557"></polygon>
                    <polygon id="Fill-287" fill="#002FF8" mask="url(#mask-2)" points="30.06 -27.25 37.232 -27.25 37.232 -54.4 30.06 -54.4"></polygon>
                    <polygon id="Fill-288" fill="#002FF8" mask="url(#mask-2)" points="22.825 -54.407 29.997 -54.407 29.997 -81.557 22.825 -81.557"></polygon>
                    <polygon id="Fill-289" fill="#002FF8" mask="url(#mask-2)" points="15.56 -27.25 22.732 -27.25 22.732 -54.4 15.56 -54.4"></polygon>
                    <polygon id="Fill-290" fill="#002FF8" mask="url(#mask-2)" points="8.325 -54.407 15.497 -54.407 15.497 -81.557 8.325 -81.557"></polygon>
                    <polygon id="Fill-291" fill="#002FF8" mask="url(#mask-2)" points="1.06 -27.25 8.232 -27.25 8.232 -54.4 1.06 -54.4"></polygon>
                    <polygon id="Fill-292" fill="#002FF8" mask="url(#mask-2)" points="-6.175 -54.407 0.997 -54.407 0.997 -81.557 -6.175 -81.557"></polygon>
                    <polygon id="Fill-293" fill="#002FF8" mask="url(#mask-2)" points="-13.44 -27.25 -6.268 -27.25 -6.268 -54.4 -13.44 -54.4"></polygon>
                    <polygon id="Fill-294" fill="#002FF8" mask="url(#mask-2)" points="-20.675 -54.407 -13.503 -54.407 -13.503 -81.557 -20.675 -81.557"></polygon>
                    <polygon id="Fill-295" fill="#002FF8" mask="url(#mask-2)" points="-27.94 -27.25 -20.768 -27.25 -20.768 -54.4 -27.94 -54.4"></polygon>
                    <polygon id="Fill-296" fill="#002FF8" mask="url(#mask-2)" points="-35.175 -54.407 -28.003 -54.407 -28.003 -81.557 -35.175 -81.557"></polygon>
                    <polygon id="Fill-297" fill="#002FF8" mask="url(#mask-2)" points="-42.44 -27.25 -35.268 -27.25 -35.268 -54.4 -42.44 -54.4"></polygon>
                    <polygon id="Fill-298" fill="#002FF8" mask="url(#mask-2)" points="-49.675 -54.407 -42.503 -54.407 -42.503 -81.557 -49.675 -81.557"></polygon>
                    <polygon id="Fill-299" fill="#002FF8" mask="url(#mask-2)" points="-56.94 -27.25 -49.768 -27.25 -49.768 -54.4 -56.94 -54.4"></polygon>
                    <polygon id="Fill-300" fill="#002FF8" mask="url(#mask-2)" points="-64.175 -54.407 -57.003 -54.407 -57.003 -81.557 -64.175 -81.557"></polygon>
                    <polygon id="Fill-301" fill="#002FF8" mask="url(#mask-2)" points="-71.44 -27.25 -64.268 -27.25 -64.268 -54.4 -71.44 -54.4"></polygon>
                    <polygon id="Fill-302" fill="#002FF8" mask="url(#mask-2)" points="225.825 -0.157 232.997 -0.157 232.997 -27.307 225.825 -27.307"></polygon>
                    <polygon id="Fill-303" fill="#002FF8" mask="url(#mask-2)" points="218.56 27 225.732 27 225.732 -0.15 218.56 -0.15"></polygon>
                    <polygon id="Fill-304" fill="#002FF8" mask="url(#mask-2)" points="211.325 -0.157 218.497 -0.157 218.497 -27.307 211.325 -27.307"></polygon>
                    <polygon id="Fill-305" fill="#002FF8" mask="url(#mask-2)" points="204.06 27 211.232 27 211.232 -0.15 204.06 -0.15"></polygon>
                    <polygon id="Fill-306" fill="#002FF8" mask="url(#mask-2)" points="196.825 -0.157 203.997 -0.157 203.997 -27.307 196.825 -27.307"></polygon>
                    <polygon id="Fill-307" fill="#002FF8" mask="url(#mask-2)" points="189.56 27 196.732 27 196.732 -0.15 189.56 -0.15"></polygon>
                    <polygon id="Fill-308" fill="#002FF8" mask="url(#mask-2)" points="182.325 -0.157 189.497 -0.157 189.497 -27.307 182.325 -27.307"></polygon>
                    <polygon id="Fill-309" fill="#002FF8" mask="url(#mask-2)" points="175.06 27 182.232 27 182.232 -0.15 175.06 -0.15"></polygon>
                    <polygon id="Fill-310" fill="#002FF8" mask="url(#mask-2)" points="167.825 -0.157 174.997 -0.157 174.997 -27.307 167.825 -27.307"></polygon>
                    <polygon id="Fill-311" fill="#002FF8" mask="url(#mask-2)" points="160.56 27 167.732 27 167.732 -0.15 160.56 -0.15"></polygon>
                    <polygon id="Fill-312" fill="#002FF8" mask="url(#mask-2)" points="153.325 -0.157 160.497 -0.157 160.497 -27.307 153.325 -27.307"></polygon>
                    <polygon id="Fill-313" fill="#002FF8" mask="url(#mask-2)" points="146.06 27 153.232 27 153.232 -0.15 146.06 -0.15"></polygon>
                    <polygon id="Fill-314" fill="#002FF8" mask="url(#mask-2)" points="138.825 -0.157 145.997 -0.157 145.997 -27.307 138.825 -27.307"></polygon>
                    <polygon id="Fill-315" fill="#002FF8" mask="url(#mask-2)" points="131.56 27 138.732 27 138.732 -0.15 131.56 -0.15"></polygon>
                    <polygon id="Fill-316" fill="#002FF8" mask="url(#mask-2)" points="124.325 -0.157 131.497 -0.157 131.497 -27.307 124.325 -27.307"></polygon>
                    <polygon id="Fill-317" fill="#002FF8" mask="url(#mask-2)" points="117.06 27 124.232 27 124.232 -0.15 117.06 -0.15"></polygon>
                    <polygon id="Fill-318" fill="#002FF8" mask="url(#mask-2)" points="109.825 -0.157 116.997 -0.157 116.997 -27.307 109.825 -27.307"></polygon>
                    <polygon id="Fill-319" fill="#002FF8" mask="url(#mask-2)" points="102.56 27 109.732 27 109.732 -0.15 102.56 -0.15"></polygon>
                    <polygon id="Fill-320" fill="#002FF8" mask="url(#mask-2)" points="95.325 -0.157 102.497 -0.157 102.497 -27.307 95.325 -27.307"></polygon>
                    <polygon id="Fill-321" fill="#002FF8" mask="url(#mask-2)" points="88.06 27 95.232 27 95.232 -0.15 88.06 -0.15"></polygon>
                    <polygon id="Fill-322" fill="#002FF8" mask="url(#mask-2)" points="80.825 -0.157 87.997 -0.157 87.997 -27.307 80.825 -27.307"></polygon>
                    <polygon id="Fill-323" fill="#002FF8" mask="url(#mask-2)" points="73.56 27 80.732 27 80.732 -0.15 73.56 -0.15"></polygon>
                    <polygon id="Fill-324" fill="#002FF8" mask="url(#mask-2)" points="66.325 -0.157 73.497 -0.157 73.497 -27.307 66.325 -27.307"></polygon>
                    <polygon id="Fill-325" fill="#002FF8" mask="url(#mask-2)" points="59.06 27 66.232 27 66.232 -0.15 59.06 -0.15"></polygon>
                    <polygon id="Fill-326" fill="#002FF8" mask="url(#mask-2)" points="51.825 -0.157 58.997 -0.157 58.997 -27.307 51.825 -27.307"></polygon>
                    <polygon id="Fill-327" fill="#002FF8" mask="url(#mask-2)" points="44.56 27 51.732 27 51.732 -0.15 44.56 -0.15"></polygon>
                    <polygon id="Fill-328" fill="#002FF8" mask="url(#mask-2)" points="37.325 -0.157 44.497 -0.157 44.497 -27.307 37.325 -27.307"></polygon>
                    <polygon id="Fill-329" fill="#002FF8" mask="url(#mask-2)" points="30.06 27 37.232 27 37.232 -0.15 30.06 -0.15"></polygon>
                    <polygon id="Fill-330" fill="#002FF8" mask="url(#mask-2)" points="22.825 -0.157 29.997 -0.157 29.997 -27.307 22.825 -27.307"></polygon>
                    <polygon id="Fill-331" fill="#002FF8" mask="url(#mask-2)" points="15.56 27 22.732 27 22.732 -0.15 15.56 -0.15"></polygon>
                    <polygon id="Fill-332" fill="#002FF8" mask="url(#mask-2)" points="8.325 -0.157 15.497 -0.157 15.497 -27.307 8.325 -27.307"></polygon>
                    <polygon id="Fill-333" fill="#002FF8" mask="url(#mask-2)" points="1.06 27 8.232 27 8.232 -0.15 1.06 -0.15"></polygon>
                    <polygon id="Fill-334" fill="#002FF8" mask="url(#mask-2)" points="-6.175 -0.157 0.997 -0.157 0.997 -27.307 -6.175 -27.307"></polygon>
                    <polygon id="Fill-335" fill="#002FF8" mask="url(#mask-2)" points="-13.44 27 -6.268 27 -6.268 -0.15 -13.44 -0.15"></polygon>
                    <polygon id="Fill-336" fill="#002FF8" mask="url(#mask-2)" points="-20.675 -0.157 -13.503 -0.157 -13.503 -27.307 -20.675 -27.307"></polygon>
                    <polygon id="Fill-337" fill="#002FF8" mask="url(#mask-2)" points="-27.94 27 -20.768 27 -20.768 -0.15 -27.94 -0.15"></polygon>
                    <polygon id="Fill-338" fill="#002FF8" mask="url(#mask-2)" points="-35.175 -0.157 -28.003 -0.157 -28.003 -27.307 -35.175 -27.307"></polygon>
                    <polygon id="Fill-339" fill="#002FF8" mask="url(#mask-2)" points="-42.44 27 -35.268 27 -35.268 -0.15 -42.44 -0.15"></polygon>
                    <polygon id="Fill-340" fill="#002FF8" mask="url(#mask-2)" points="-49.675 -0.157 -42.503 -0.157 -42.503 -27.307 -49.675 -27.307"></polygon>
                    <polygon id="Fill-341" fill="#002FF8" mask="url(#mask-2)" points="-56.94 27 -49.768 27 -49.768 -0.15 -56.94 -0.15"></polygon>
                    <polygon id="Fill-342" fill="#002FF8" mask="url(#mask-2)" points="-64.175 -0.157 -57.003 -0.157 -57.003 -27.307 -64.175 -27.307"></polygon>
                    <polygon id="Fill-343" fill="#002FF8" mask="url(#mask-2)" points="-71.44 27 -64.268 27 -64.268 -0.15 -71.44 -0.15"></polygon>
                    <polygon id="Fill-344" fill="#002FF8" mask="url(#mask-2)" points="225.825 54.093 232.997 54.093 232.997 26.943 225.825 26.943"></polygon>
                    <polygon id="Fill-345" fill="#002FF8" mask="url(#mask-2)" points="218.56 81.25 225.732 81.25 225.732 54.1 218.56 54.1"></polygon>
                    <polygon id="Fill-346" fill="#002FF8" mask="url(#mask-2)" points="211.325 54.093 218.497 54.093 218.497 26.943 211.325 26.943"></polygon>
                    <polygon id="Fill-347" fill="#002FF8" mask="url(#mask-2)" points="204.06 81.25 211.232 81.25 211.232 54.1 204.06 54.1"></polygon>
                    <polygon id="Fill-348" fill="#002FF8" mask="url(#mask-2)" points="196.825 54.093 203.997 54.093 203.997 26.943 196.825 26.943"></polygon>
                    <polygon id="Fill-349" fill="#002FF8" mask="url(#mask-2)" points="189.56 81.25 196.732 81.25 196.732 54.1 189.56 54.1"></polygon>
                    <polygon id="Fill-350" fill="#002FF8" mask="url(#mask-2)" points="182.325 54.093 189.497 54.093 189.497 26.943 182.325 26.943"></polygon>
                    <polygon id="Fill-351" fill="#002FF8" mask="url(#mask-2)" points="175.06 81.25 182.232 81.25 182.232 54.1 175.06 54.1"></polygon>
                    <polygon id="Fill-352" fill="#002FF8" mask="url(#mask-2)" points="167.825 54.093 174.997 54.093 174.997 26.943 167.825 26.943"></polygon>
                    <polygon id="Fill-353" fill="#002FF8" mask="url(#mask-2)" points="160.56 81.25 167.732 81.25 167.732 54.1 160.56 54.1"></polygon>
                    <polygon id="Fill-354" fill="#002FF8" mask="url(#mask-2)" points="153.325 54.093 160.497 54.093 160.497 26.943 153.325 26.943"></polygon>
                    <polygon id="Fill-355" fill="#002FF8" mask="url(#mask-2)" points="146.06 81.25 153.232 81.25 153.232 54.1 146.06 54.1"></polygon>
                    <polygon id="Fill-356" fill="#002FF8" mask="url(#mask-2)" points="138.825 54.093 145.997 54.093 145.997 26.943 138.825 26.943"></polygon>
                    <polygon id="Fill-357" fill="#002FF8" mask="url(#mask-2)" points="131.56 81.25 138.732 81.25 138.732 54.1 131.56 54.1"></polygon>
                    <polygon id="Fill-358" fill="#002FF8" mask="url(#mask-2)" points="124.325 54.093 131.497 54.093 131.497 26.943 124.325 26.943"></polygon>
                    <polygon id="Fill-359" fill="#002FF8" mask="url(#mask-2)" points="117.06 81.25 124.232 81.25 124.232 54.1 117.06 54.1"></polygon>
                    <polygon id="Fill-360" fill="#002FF8" mask="url(#mask-2)" points="109.825 54.093 116.997 54.093 116.997 26.943 109.825 26.943"></polygon>
                    <polygon id="Fill-361" fill="#002FF8" mask="url(#mask-2)" points="102.56 81.25 109.732 81.25 109.732 54.1 102.56 54.1"></polygon>
                    <polygon id="Fill-362" fill="#002FF8" mask="url(#mask-2)" points="95.325 54.093 102.497 54.093 102.497 26.943 95.325 26.943"></polygon>
                    <polygon id="Fill-363" fill="#002FF8" mask="url(#mask-2)" points="88.06 81.25 95.232 81.25 95.232 54.1 88.06 54.1"></polygon>
                    <polygon id="Fill-364" fill="#002FF8" mask="url(#mask-2)" points="80.825 54.093 87.997 54.093 87.997 26.943 80.825 26.943"></polygon>
                    <polygon id="Fill-365" fill="#002FF8" mask="url(#mask-2)" points="73.56 81.25 80.732 81.25 80.732 54.1 73.56 54.1"></polygon>
                    <polygon id="Fill-366" fill="#002FF8" mask="url(#mask-2)" points="66.325 54.093 73.497 54.093 73.497 26.943 66.325 26.943"></polygon>
                    <polygon id="Fill-367" fill="#002FF8" mask="url(#mask-2)" points="59.06 81.25 66.232 81.25 66.232 54.1 59.06 54.1"></polygon>
                    <polygon id="Fill-368" fill="#002FF8" mask="url(#mask-2)" points="51.825 54.093 58.997 54.093 58.997 26.943 51.825 26.943"></polygon>
                    <polygon id="Fill-369" fill="#002FF8" mask="url(#mask-2)" points="44.56 81.25 51.732 81.25 51.732 54.1 44.56 54.1"></polygon>
                    <polygon id="Fill-370" fill="#002FF8" mask="url(#mask-2)" points="37.325 54.093 44.497 54.093 44.497 26.943 37.325 26.943"></polygon>
                    <polygon id="Fill-371" fill="#002FF8" mask="url(#mask-2)" points="30.06 81.25 37.232 81.25 37.232 54.1 30.06 54.1"></polygon>
                    <polygon id="Fill-372" fill="#002FF8" mask="url(#mask-2)" points="22.825 54.093 29.997 54.093 29.997 26.943 22.825 26.943"></polygon>
                    <polygon id="Fill-373" fill="#002FF8" mask="url(#mask-2)" points="15.56 81.25 22.732 81.25 22.732 54.1 15.56 54.1"></polygon>
                    <polygon id="Fill-374" fill="#002FF8" mask="url(#mask-2)" points="8.325 54.093 15.497 54.093 15.497 26.943 8.325 26.943"></polygon>
                    <polygon id="Fill-375" fill="#002FF8" mask="url(#mask-2)" points="1.06 81.25 8.232 81.25 8.232 54.1 1.06 54.1"></polygon>
                    <polygon id="Fill-376" fill="#002FF8" mask="url(#mask-2)" points="-6.175 54.093 0.997 54.093 0.997 26.943 -6.175 26.943"></polygon>
                    <polygon id="Fill-377" fill="#002FF8" mask="url(#mask-2)" points="-13.44 81.25 -6.268 81.25 -6.268 54.1 -13.44 54.1"></polygon>
                    <polygon id="Fill-378" fill="#002FF8" mask="url(#mask-2)" points="-20.675 54.093 -13.503 54.093 -13.503 26.943 -20.675 26.943"></polygon>
                    <polygon id="Fill-379" fill="#002FF8" mask="url(#mask-2)" points="-27.94 81.25 -20.768 81.25 -20.768 54.1 -27.94 54.1"></polygon>
                    <polygon id="Fill-380" fill="#002FF8" mask="url(#mask-2)" points="-35.175 54.093 -28.003 54.093 -28.003 26.943 -35.175 26.943"></polygon>
                    <polygon id="Fill-381" fill="#002FF8" mask="url(#mask-2)" points="-42.44 81.25 -35.268 81.25 -35.268 54.1 -42.44 54.1"></polygon>
                    <polygon id="Fill-382" fill="#002FF8" mask="url(#mask-2)" points="-49.675 54.093 -42.503 54.093 -42.503 26.943 -49.675 26.943"></polygon>
                    <polygon id="Fill-383" fill="#002FF8" mask="url(#mask-2)" points="-56.94 81.25 -49.768 81.25 -49.768 54.1 -56.94 54.1"></polygon>
                    <polygon id="Fill-384" fill="#002FF8" mask="url(#mask-2)" points="-64.175 54.093 -57.003 54.093 -57.003 26.943 -64.175 26.943"></polygon>
                    <polygon id="Fill-385" fill="#002FF8" mask="url(#mask-2)" points="-71.44 81.25 -64.268 81.25 -64.268 54.1 -71.44 54.1"></polygon>
                    <polygon id="Fill-386" fill="#002FF8" mask="url(#mask-2)" points="225.825 108.343 232.997 108.343 232.997 81.193 225.825 81.193"></polygon>
                    <polygon id="Fill-387" fill="#002FF8" mask="url(#mask-2)" points="218.56 135.5 225.732 135.5 225.732 108.35 218.56 108.35"></polygon>
                    <polygon id="Fill-388" fill="#002FF8" mask="url(#mask-2)" points="211.325 108.343 218.497 108.343 218.497 81.193 211.325 81.193"></polygon>
                    <polygon id="Fill-389" fill="#002FF8" mask="url(#mask-2)" points="204.06 135.5 211.232 135.5 211.232 108.35 204.06 108.35"></polygon>
                    <polygon id="Fill-390" fill="#002FF8" mask="url(#mask-2)" points="196.825 108.343 203.997 108.343 203.997 81.193 196.825 81.193"></polygon>
                    <polygon id="Fill-391" fill="#002FF8" mask="url(#mask-2)" points="189.56 135.5 196.732 135.5 196.732 108.35 189.56 108.35"></polygon>
                    <polygon id="Fill-392" fill="#002FF8" mask="url(#mask-2)" points="182.325 108.343 189.497 108.343 189.497 81.193 182.325 81.193"></polygon>
                    <polygon id="Fill-393" fill="#002FF8" mask="url(#mask-2)" points="175.06 135.5 182.232 135.5 182.232 108.35 175.06 108.35"></polygon>
                    <polygon id="Fill-394" fill="#002FF8" mask="url(#mask-2)" points="167.825 108.343 174.997 108.343 174.997 81.193 167.825 81.193"></polygon>
                    <polygon id="Fill-395" fill="#002FF8" mask="url(#mask-2)" points="160.56 135.5 167.732 135.5 167.732 108.35 160.56 108.35"></polygon>
                    <polygon id="Fill-396" fill="#002FF8" mask="url(#mask-2)" points="153.325 108.343 160.497 108.343 160.497 81.193 153.325 81.193"></polygon>
                    <polygon id="Fill-397" fill="#002FF8" mask="url(#mask-2)" points="146.06 135.5 153.232 135.5 153.232 108.35 146.06 108.35"></polygon>
                    <polygon id="Fill-398" fill="#002FF8" mask="url(#mask-2)" points="138.825 108.343 145.997 108.343 145.997 81.193 138.825 81.193"></polygon>
                    <polygon id="Fill-399" fill="#002FF8" mask="url(#mask-2)" points="131.56 135.5 138.732 135.5 138.732 108.35 131.56 108.35"></polygon>
                    <polygon id="Fill-400" fill="#002FF8" mask="url(#mask-2)" points="124.325 108.343 131.497 108.343 131.497 81.193 124.325 81.193"></polygon>
                    <polygon id="Fill-401" fill="#002FF8" mask="url(#mask-2)" points="117.06 135.5 124.232 135.5 124.232 108.35 117.06 108.35"></polygon>
                    <polygon id="Fill-402" fill="#002FF8" mask="url(#mask-2)" points="109.825 108.343 116.997 108.343 116.997 81.193 109.825 81.193"></polygon>
                    <polygon id="Fill-403" fill="#002FF8" mask="url(#mask-2)" points="102.56 135.5 109.732 135.5 109.732 108.35 102.56 108.35"></polygon>
                    <polygon id="Fill-404" fill="#002FF8" mask="url(#mask-2)" points="95.325 108.343 102.497 108.343 102.497 81.193 95.325 81.193"></polygon>
                    <polygon id="Fill-405" fill="#002FF8" mask="url(#mask-2)" points="88.06 135.5 95.232 135.5 95.232 108.35 88.06 108.35"></polygon>
                    <polygon id="Fill-406" fill="#002FF8" mask="url(#mask-2)" points="80.825 108.343 87.997 108.343 87.997 81.193 80.825 81.193"></polygon>
                    <polygon id="Fill-407" fill="#002FF8" mask="url(#mask-2)" points="73.56 135.5 80.732 135.5 80.732 108.35 73.56 108.35"></polygon>
                    <polygon id="Fill-408" fill="#002FF8" mask="url(#mask-2)" points="66.325 108.343 73.497 108.343 73.497 81.193 66.325 81.193"></polygon>
                    <polygon id="Fill-409" fill="#002FF8" mask="url(#mask-2)" points="59.06 135.5 66.232 135.5 66.232 108.35 59.06 108.35"></polygon>
                    <polygon id="Fill-410" fill="#002FF8" mask="url(#mask-2)" points="51.825 108.343 58.997 108.343 58.997 81.193 51.825 81.193"></polygon>
                    <polygon id="Fill-411" fill="#002FF8" mask="url(#mask-2)" points="44.56 135.5 51.732 135.5 51.732 108.35 44.56 108.35"></polygon>
                    <polygon id="Fill-412" fill="#002FF8" mask="url(#mask-2)" points="37.325 108.343 44.497 108.343 44.497 81.193 37.325 81.193"></polygon>
                    <polygon id="Fill-413" fill="#002FF8" mask="url(#mask-2)" points="30.06 135.5 37.232 135.5 37.232 108.35 30.06 108.35"></polygon>
                    <polygon id="Fill-414" fill="#002FF8" mask="url(#mask-2)" points="22.825 108.343 29.997 108.343 29.997 81.193 22.825 81.193"></polygon>
                    <polygon id="Fill-415" fill="#002FF8" mask="url(#mask-2)" points="15.56 135.5 22.732 135.5 22.732 108.35 15.56 108.35"></polygon>
                    <polygon id="Fill-416" fill="#002FF8" mask="url(#mask-2)" points="8.325 108.343 15.497 108.343 15.497 81.193 8.325 81.193"></polygon>
                    <polygon id="Fill-417" fill="#002FF8" mask="url(#mask-2)" points="1.06 135.5 8.232 135.5 8.232 108.35 1.06 108.35"></polygon>
                    <polygon id="Fill-418" fill="#002FF8" mask="url(#mask-2)" points="-6.175 108.343 0.997 108.343 0.997 81.193 -6.175 81.193"></polygon>
                    <polygon id="Fill-419" fill="#002FF8" mask="url(#mask-2)" points="-13.44 135.5 -6.268 135.5 -6.268 108.35 -13.44 108.35"></polygon>
                    <polygon id="Fill-420" fill="#002FF8" mask="url(#mask-2)" points="-20.675 108.343 -13.503 108.343 -13.503 81.193 -20.675 81.193"></polygon>
                    <polygon id="Fill-421" fill="#002FF8" mask="url(#mask-2)" points="-27.94 135.5 -20.768 135.5 -20.768 108.35 -27.94 108.35"></polygon>
                    <polygon id="Fill-422" fill="#002FF8" mask="url(#mask-2)" points="-35.175 108.343 -28.003 108.343 -28.003 81.193 -35.175 81.193"></polygon>
                    <polygon id="Fill-423" fill="#002FF8" mask="url(#mask-2)" points="-42.44 135.5 -35.268 135.5 -35.268 108.35 -42.44 108.35"></polygon>
                    <polygon id="Fill-424" fill="#002FF8" mask="url(#mask-2)" points="-49.675 108.343 -42.503 108.343 -42.503 81.193 -49.675 81.193"></polygon>
                    <polygon id="Fill-425" fill="#002FF8" mask="url(#mask-2)" points="-56.94 135.5 -49.768 135.5 -49.768 108.35 -56.94 108.35"></polygon>
                    <polygon id="Fill-426" fill="#002FF8" mask="url(#mask-2)" points="-64.175 108.343 -57.003 108.343 -57.003 81.193 -64.175 81.193"></polygon>
                    <polygon id="Fill-427" fill="#002FF8" mask="url(#mask-2)" points="-71.44 135.5 -64.268 135.5 -64.268 108.35 -71.44 108.35"></polygon>
                    <polygon id="Fill-428" fill="#002FF8" mask="url(#mask-2)" points="225.825 162.593 232.997 162.593 232.997 135.443 225.825 135.443"></polygon>
                    <polygon id="Fill-429" fill="#002FF8" mask="url(#mask-2)" points="218.56 189.75 225.732 189.75 225.732 162.6 218.56 162.6"></polygon>
                    <polygon id="Fill-430" fill="#002FF8" mask="url(#mask-2)" points="211.325 162.593 218.497 162.593 218.497 135.443 211.325 135.443"></polygon>
                    <polygon id="Fill-431" fill="#002FF8" mask="url(#mask-2)" points="204.06 189.75 211.232 189.75 211.232 162.6 204.06 162.6"></polygon>
                    <polygon id="Fill-432" fill="#002FF8" mask="url(#mask-2)" points="196.825 162.593 203.997 162.593 203.997 135.443 196.825 135.443"></polygon>
                    <polygon id="Fill-433" fill="#002FF8" mask="url(#mask-2)" points="189.56 189.75 196.732 189.75 196.732 162.6 189.56 162.6"></polygon>
                    <polygon id="Fill-434" fill="#002FF8" mask="url(#mask-2)" points="182.325 162.593 189.497 162.593 189.497 135.443 182.325 135.443"></polygon>
                    <polygon id="Fill-435" fill="#002FF8" mask="url(#mask-2)" points="175.06 189.75 182.232 189.75 182.232 162.6 175.06 162.6"></polygon>
                    <polygon id="Fill-436" fill="#002FF8" mask="url(#mask-2)" points="167.825 162.593 174.997 162.593 174.997 135.443 167.825 135.443"></polygon>
                    <polygon id="Fill-437" fill="#002FF8" mask="url(#mask-2)" points="160.56 189.75 167.732 189.75 167.732 162.6 160.56 162.6"></polygon>
                    <polygon id="Fill-438" fill="#002FF8" mask="url(#mask-2)" points="153.325 162.593 160.497 162.593 160.497 135.443 153.325 135.443"></polygon>
                    <polygon id="Fill-439" fill="#002FF8" mask="url(#mask-2)" points="146.06 189.75 153.232 189.75 153.232 162.6 146.06 162.6"></polygon>
                    <polygon id="Fill-440" fill="#002FF8" mask="url(#mask-2)" points="138.825 162.593 145.997 162.593 145.997 135.443 138.825 135.443"></polygon>
                    <polygon id="Fill-441" fill="#002FF8" mask="url(#mask-2)" points="131.56 189.75 138.732 189.75 138.732 162.6 131.56 162.6"></polygon>
                    <polygon id="Fill-442" fill="#002FF8" mask="url(#mask-2)" points="124.325 162.593 131.497 162.593 131.497 135.443 124.325 135.443"></polygon>
                    <polygon id="Fill-443" fill="#002FF8" mask="url(#mask-2)" points="117.06 189.75 124.232 189.75 124.232 162.6 117.06 162.6"></polygon>
                    <polygon id="Fill-444" fill="#002FF8" mask="url(#mask-2)" points="109.825 162.593 116.997 162.593 116.997 135.443 109.825 135.443"></polygon>
                    <polygon id="Fill-445" fill="#002FF8" mask="url(#mask-2)" points="102.56 189.75 109.732 189.75 109.732 162.6 102.56 162.6"></polygon>
                    <polygon id="Fill-446" fill="#002FF8" mask="url(#mask-2)" points="95.325 162.593 102.497 162.593 102.497 135.443 95.325 135.443"></polygon>
                    <polygon id="Fill-447" fill="#002FF8" mask="url(#mask-2)" points="88.06 189.75 95.232 189.75 95.232 162.6 88.06 162.6"></polygon>
                    <polygon id="Fill-448" fill="#002FF8" mask="url(#mask-2)" points="80.825 162.593 87.997 162.593 87.997 135.443 80.825 135.443"></polygon>
                    <polygon id="Fill-449" fill="#002FF8" mask="url(#mask-2)" points="73.56 189.75 80.732 189.75 80.732 162.6 73.56 162.6"></polygon>
                    <polygon id="Fill-450" fill="#002FF8" mask="url(#mask-2)" points="66.325 162.593 73.497 162.593 73.497 135.443 66.325 135.443"></polygon>
                    <polygon id="Fill-451" fill="#002FF8" mask="url(#mask-2)" points="59.06 189.75 66.232 189.75 66.232 162.6 59.06 162.6"></polygon>
                    <polygon id="Fill-452" fill="#002FF8" mask="url(#mask-2)" points="51.825 162.593 58.997 162.593 58.997 135.443 51.825 135.443"></polygon>
                    <polygon id="Fill-453" fill="#002FF8" mask="url(#mask-2)" points="44.56 189.75 51.732 189.75 51.732 162.6 44.56 162.6"></polygon>
                    <polygon id="Fill-454" fill="#002FF8" mask="url(#mask-2)" points="37.325 162.593 44.497 162.593 44.497 135.443 37.325 135.443"></polygon>
                    <polygon id="Fill-455" fill="#002FF8" mask="url(#mask-2)" points="30.06 189.75 37.232 189.75 37.232 162.6 30.06 162.6"></polygon>
                    <polygon id="Fill-456" fill="#002FF8" mask="url(#mask-2)" points="22.825 162.593 29.997 162.593 29.997 135.443 22.825 135.443"></polygon>
                    <polygon id="Fill-457" fill="#002FF8" mask="url(#mask-2)" points="15.56 189.75 22.732 189.75 22.732 162.6 15.56 162.6"></polygon>
                    <polygon id="Fill-458" fill="#002FF8" mask="url(#mask-2)" points="8.325 162.593 15.497 162.593 15.497 135.443 8.325 135.443"></polygon>
                    <polygon id="Fill-459" fill="#002FF8" mask="url(#mask-2)" points="1.06 189.75 8.232 189.75 8.232 162.6 1.06 162.6"></polygon>
                    <polygon id="Fill-460" fill="#002FF8" mask="url(#mask-2)" points="-6.175 162.593 0.997 162.593 0.997 135.443 -6.175 135.443"></polygon>
                    <polygon id="Fill-461" fill="#002FF8" mask="url(#mask-2)" points="-13.44 189.75 -6.268 189.75 -6.268 162.6 -13.44 162.6"></polygon>
                    <polygon id="Fill-462" fill="#002FF8" mask="url(#mask-2)" points="-20.675 162.593 -13.503 162.593 -13.503 135.443 -20.675 135.443"></polygon>
                    <polygon id="Fill-463" fill="#002FF8" mask="url(#mask-2)" points="-27.94 189.75 -20.768 189.75 -20.768 162.6 -27.94 162.6"></polygon>
                    <polygon id="Fill-464" fill="#002FF8" mask="url(#mask-2)" points="-35.175 162.593 -28.003 162.593 -28.003 135.443 -35.175 135.443"></polygon>
                    <polygon id="Fill-465" fill="#002FF8" mask="url(#mask-2)" points="-42.44 189.75 -35.268 189.75 -35.268 162.6 -42.44 162.6"></polygon>
                    <polygon id="Fill-466" fill="#002FF8" mask="url(#mask-2)" points="-49.675 162.593 -42.503 162.593 -42.503 135.443 -49.675 135.443"></polygon>
                    <polygon id="Fill-467" fill="#002FF8" mask="url(#mask-2)" points="-56.94 189.75 -49.768 189.75 -49.768 162.6 -56.94 162.6"></polygon>
                    <polygon id="Fill-468" fill="#002FF8" mask="url(#mask-2)" points="-64.175 162.593 -57.003 162.593 -57.003 135.443 -64.175 135.443"></polygon>
                    <polygon id="Fill-469" fill="#002FF8" mask="url(#mask-2)" points="-71.44 189.75 -64.268 189.75 -64.268 162.6 -71.44 162.6"></polygon>
                    <polygon id="Fill-470" fill="#002FF8" mask="url(#mask-2)" points="225.825 216.843 232.997 216.843 232.997 189.693 225.825 189.693"></polygon>
                    <polygon id="Fill-471" fill="#002FF8" mask="url(#mask-2)" points="218.56 244 225.732 244 225.732 216.85 218.56 216.85"></polygon>
                    <polygon id="Fill-472" fill="#002FF8" mask="url(#mask-2)" points="211.325 216.843 218.497 216.843 218.497 189.693 211.325 189.693"></polygon>
                    <polygon id="Fill-473" fill="#002FF8" mask="url(#mask-2)" points="204.06 244 211.232 244 211.232 216.85 204.06 216.85"></polygon>
                    <polygon id="Fill-474" fill="#002FF8" mask="url(#mask-2)" points="196.825 216.843 203.997 216.843 203.997 189.693 196.825 189.693"></polygon>
                    <polygon id="Fill-475" fill="#002FF8" mask="url(#mask-2)" points="189.56 244 196.732 244 196.732 216.85 189.56 216.85"></polygon>
                    <polygon id="Fill-476" fill="#002FF8" mask="url(#mask-2)" points="182.325 216.843 189.497 216.843 189.497 189.693 182.325 189.693"></polygon>
                    <polygon id="Fill-477" fill="#002FF8" mask="url(#mask-2)" points="175.06 244 182.232 244 182.232 216.85 175.06 216.85"></polygon>
                    <polygon id="Fill-478" fill="#002FF8" mask="url(#mask-2)" points="167.825 216.843 174.997 216.843 174.997 189.693 167.825 189.693"></polygon>
                    <polygon id="Fill-479" fill="#002FF8" mask="url(#mask-2)" points="160.56 244 167.732 244 167.732 216.85 160.56 216.85"></polygon>
                    <polygon id="Fill-480" fill="#002FF8" mask="url(#mask-2)" points="153.325 216.843 160.497 216.843 160.497 189.693 153.325 189.693"></polygon>
                    <polygon id="Fill-481" fill="#002FF8" mask="url(#mask-2)" points="146.06 244 153.232 244 153.232 216.85 146.06 216.85"></polygon>
                    <polygon id="Fill-482" fill="#002FF8" mask="url(#mask-2)" points="138.825 216.843 145.997 216.843 145.997 189.693 138.825 189.693"></polygon>
                    <polygon id="Fill-483" fill="#002FF8" mask="url(#mask-2)" points="131.56 244 138.732 244 138.732 216.85 131.56 216.85"></polygon>
                    <polygon id="Fill-484" fill="#002FF8" mask="url(#mask-2)" points="124.325 216.843 131.497 216.843 131.497 189.693 124.325 189.693"></polygon>
                    <polygon id="Fill-485" fill="#002FF8" mask="url(#mask-2)" points="117.06 244 124.232 244 124.232 216.85 117.06 216.85"></polygon>
                    <polygon id="Fill-486" fill="#002FF8" mask="url(#mask-2)" points="109.825 216.843 116.997 216.843 116.997 189.693 109.825 189.693"></polygon>
                    <polygon id="Fill-487" fill="#002FF8" mask="url(#mask-2)" points="102.56 244 109.732 244 109.732 216.85 102.56 216.85"></polygon>
                    <polygon id="Fill-488" fill="#002FF8" mask="url(#mask-2)" points="95.325 216.843 102.497 216.843 102.497 189.693 95.325 189.693"></polygon>
                    <polygon id="Fill-489" fill="#002FF8" mask="url(#mask-2)" points="88.06 244 95.232 244 95.232 216.85 88.06 216.85"></polygon>
                    <polygon id="Fill-490" fill="#002FF8" mask="url(#mask-2)" points="80.825 216.843 87.997 216.843 87.997 189.693 80.825 189.693"></polygon>
                    <polygon id="Fill-491" fill="#002FF8" mask="url(#mask-2)" points="73.56 244 80.732 244 80.732 216.85 73.56 216.85"></polygon>
                    <polygon id="Fill-492" fill="#002FF8" mask="url(#mask-2)" points="66.325 216.843 73.497 216.843 73.497 189.693 66.325 189.693"></polygon>
                    <polygon id="Fill-493" fill="#002FF8" mask="url(#mask-2)" points="59.06 244 66.232 244 66.232 216.85 59.06 216.85"></polygon>
                    <polygon id="Fill-494" fill="#002FF8" mask="url(#mask-2)" points="51.825 216.843 58.997 216.843 58.997 189.693 51.825 189.693"></polygon>
                    <polygon id="Fill-495" fill="#002FF8" mask="url(#mask-2)" points="44.56 244 51.732 244 51.732 216.85 44.56 216.85"></polygon>
                    <polygon id="Fill-496" fill="#002FF8" mask="url(#mask-2)" points="37.325 216.843 44.497 216.843 44.497 189.693 37.325 189.693"></polygon>
                    <polygon id="Fill-497" fill="#002FF8" mask="url(#mask-2)" points="30.06 244 37.232 244 37.232 216.85 30.06 216.85"></polygon>
                    <polygon id="Fill-498" fill="#002FF8" mask="url(#mask-2)" points="22.825 216.843 29.997 216.843 29.997 189.693 22.825 189.693"></polygon>
                    <polygon id="Fill-499" fill="#002FF8" mask="url(#mask-2)" points="15.56 244 22.732 244 22.732 216.85 15.56 216.85"></polygon>
                    <polygon id="Fill-500" fill="#002FF8" mask="url(#mask-2)" points="8.325 216.843 15.497 216.843 15.497 189.693 8.325 189.693"></polygon>
                    <polygon id="Fill-501" fill="#002FF8" mask="url(#mask-2)" points="1.06 244 8.232 244 8.232 216.85 1.06 216.85"></polygon>
                    <polygon id="Fill-502" fill="#002FF8" mask="url(#mask-2)" points="-6.175 216.843 0.997 216.843 0.997 189.693 -6.175 189.693"></polygon>
                    <polygon id="Fill-503" fill="#002FF8" mask="url(#mask-2)" points="-13.44 244 -6.268 244 -6.268 216.85 -13.44 216.85"></polygon>
                    <polygon id="Fill-504" fill="#002FF8" mask="url(#mask-2)" points="-20.675 216.843 -13.503 216.843 -13.503 189.693 -20.675 189.693"></polygon>
                    <polygon id="Fill-505" fill="#002FF8" mask="url(#mask-2)" points="-27.94 244 -20.768 244 -20.768 216.85 -27.94 216.85"></polygon>
                    <polygon id="Fill-506" fill="#002FF8" mask="url(#mask-2)" points="-35.175 216.843 -28.003 216.843 -28.003 189.693 -35.175 189.693"></polygon>
                    <polygon id="Fill-507" fill="#002FF8" mask="url(#mask-2)" points="-42.44 244 -35.268 244 -35.268 216.85 -42.44 216.85"></polygon>
                    <polygon id="Fill-508" fill="#002FF8" mask="url(#mask-2)" points="-49.675 216.843 -42.503 216.843 -42.503 189.693 -49.675 189.693"></polygon>
                    <polygon id="Fill-509" fill="#002FF8" mask="url(#mask-2)" points="-56.94 244 -49.768 244 -49.768 216.85 -56.94 216.85"></polygon>
                    <polygon id="Fill-510" fill="#002FF8" mask="url(#mask-2)" points="-64.175 216.843 -57.003 216.843 -57.003 189.693 -64.175 189.693"></polygon>
                    <polygon id="Fill-511" fill="#002FF8" mask="url(#mask-2)" points="-71.44 244 -64.268 244 -64.268 216.85 -71.44 216.85"></polygon>
                </g>
            </g>
        </g>
    </g>
</svg>